<svg width="1600" height="1005" viewBox="0 0 1600 1005" fill="none" xmlns="http://www.w3.org/2000/svg">
<mask id="mask0" mask-type="alpha" maskUnits="userSpaceOnUse" x="0" y="0" width="1600" height="1005">
<rect width="1600" height="1005" fill="#C255F7"/>
</mask>
<g mask="url(#mask0)">
<rect width="1600" height="1005" fill="url(#paint0_linear)"/>
</g>
<g opacity="0.4">
<mask id="mask1" mask-type="alpha" maskUnits="userSpaceOnUse" x="0" y="0" width="1600" height="1005">
<mask id="mask2" maskUnits="userSpaceOnUse" x="0" y="0" width="1600" height="1005">
<rect width="1600" height="1005" fill="white"/>
</mask>
<g mask="url(#mask2)">
<rect width="1600" height="1005" fill="white"/>
<mask id="mask3" maskUnits="userSpaceOnUse" x="-322" y="-81" width="2439" height="1085">
<path d="M-306.382 452.453C-113.758 1390.45 1541.82 919.403 2006.68 580.695C2091.62 518.806 2134.33 414.587 2109.03 304.507C2024.24 -64.5421 1462.68 -104.662 866.982 -71.1454L578.711 -54.9258C-25.8301 -20.9113 -403.67 -21.2965 -306.382 452.453Z" fill="white"/>
</mask>
<g mask="url(#mask3)">
<path d="M1138.07 -174.095C819.113 -156.148 973.223 105.795 1277.06 258.101C1347.7 293.511 1399.23 320.825 1438.33 337.437C1539.06 380.223 1607.74 277.269 1665.26 201.027C1893.64 -101.713 1513.26 -195.205 1258.65 -180.879L1138.07 -174.095Z" fill="white"/>
<path d="M600.869 -100.863C672.645 248.656 1230.06 130.431 1488.34 0.297553C1583.55 -47.6722 1650.31 -171.973 1557.39 -248.636C1467.03 -323.19 1283.57 -330.666 1091.65 -319.867L971.075 -313.083C718.215 -298.856 560.177 -299.017 600.869 -100.863Z" fill="white"/>
</g>
</g>
</mask>
<g mask="url(#mask1)">
<g opacity="0.2">
<path d="M924.822 -243.436C923.371 -243.618 779.354 -257.155 622.101 -151.333C550.606 -103.226 480.622 -20.1279 419.703 89.0182C349.175 215.328 305.541 414.281 299.195 475.985L297.866 489.16C288.075 583.439 280.4 657.896 309.953 744.983C317.628 767.646 327.781 790.732 340.594 814.483C283.603 734.89 225.585 643.573 182.132 550.925C120.73 420.022 79.9362 302.053 57.3937 190.368C35.9997 84.1835 30.077 -18.5565 38.7192 -133.081C54.8555 -347.264 85.6775 -420.753 85.9797 -421.479L89.6058 -430L81.1448 -426.072C79.634 -425.346 -70.3665 -355.242 -131.708 -291.845C-190.814 -230.805 -233.058 -163.36 -261.04 -85.6397C-308.421 46.1092 -309.207 196.412 -263.336 361.098C-212.45 543.733 -136.483 693.915 -37.6105 807.473C51.8337 910.092 159.952 982.977 283.724 1024.13C313.035 1033.86 339.385 1041.84 363.076 1048.37C239.727 1025.4 77.4583 982.796 -45.8297 906.043C-153.223 839.202 -242.909 764.564 -312.41 684.306C-360.335 629.008 -398.228 571.715 -428.446 509.285C-469.844 423.588 -471.536 409.869 -471.596 409.567L-471.475 394.821L-478.305 407.875C-480.178 411.501 -524.719 496.956 -534.57 535.575C-535.053 537.388 -535.718 539.805 -536.564 542.766C-542.487 563.435 -556.629 613.113 -556.991 678.141C-557.173 707.694 -554.514 740.45 -546.899 775.019C-516.137 914.746 -418.353 1032.72 -256.447 1125.6C-158.481 1181.75 -101.007 1210.46 2.82068 1230.94C45.065 1239.28 85.0732 1242.97 123.027 1242.97C276.23 1242.97 395.046 1182.96 485.517 1126.15C511.444 1109.89 531.932 1095.75 547.584 1079.61C550.485 1075.32 551.754 1070.06 551.15 1064.87V1064.75C550.848 1062.33 521.96 820.648 532.234 690.531C537.371 625.744 545.167 527.778 571.879 413.133C603.608 277.153 655.038 149.695 724.599 34.4452C774.338 -47.8677 812.412 -101.111 844.261 -144.564C905.724 -228.388 924.761 -236.244 925.365 -236.547L942.469 -241.684L924.822 -243.436ZM-32.2318 802.819C-130.439 690.108 -205.862 540.833 -256.447 359.224C-301.894 195.989 -301.229 47.1366 -254.331 -83.2223C-226.713 -159.975 -184.952 -226.575 -126.632 -286.829C-74.2947 -340.918 44.4003 -400.387 76.1892 -415.798C67.7887 -391.382 44.8837 -311.184 31.5275 -133.565C22.8248 -18.4357 28.8079 84.9691 50.3228 191.819C72.9257 304.107 113.901 422.561 175.605 554.007C236.222 683.158 324.82 809.649 399.881 905.62C410.457 919.58 421.879 933.843 434.147 948.529C485.215 1011.14 525.526 1055.08 538.821 1069.28C509.51 1072.12 428.285 1064.63 286.021 1017.36C163.397 976.692 56.3059 904.472 -32.2318 802.819ZM-529.735 545.123C-528.829 542.041 -528.164 539.563 -527.68 537.69C-519.703 506.626 -487.612 442.142 -476.129 419.539C-472.019 431.445 -461.564 457.371 -434.852 512.67C-404.392 575.704 -366.137 633.48 -317.789 689.262C-247.865 770.063 -157.635 845.124 -49.6371 912.328C16.4186 953.424 136.685 1010.84 334.49 1050.6C432.334 1070.25 511.686 1077.92 536.585 1080.04C522.202 1093.39 504.071 1105.78 481.71 1119.74C369.905 1189.85 214.526 1265.03 4.15027 1223.57C-99.0732 1203.26 -153.465 1176.13 -252.941 1119.08C-413.095 1027.22 -509.671 910.878 -540.009 773.146C-547.503 739.242 -550.102 707.09 -549.981 678.081C-549.497 614.322 -535.537 565.49 -529.735 545.123ZM838.58 -148.734C806.671 -105.16 768.415 -51.796 718.556 30.8191C648.572 146.734 596.9 274.857 564.99 411.561C538.096 526.751 530.3 624.958 525.163 689.987C515.977 805.539 537.552 1008 542.931 1055.5C502.621 1015.19 468.656 978.444 440.01 944.419C428.285 930.036 415.956 914.685 403.265 898.428C279.614 733.984 289.949 634.024 304.876 489.946L306.206 476.771C312.491 415.49 355.884 217.927 425.868 92.5235C486.243 -15.6557 555.501 -97.9685 626.029 -145.41C756.811 -233.404 877.984 -237.755 913.58 -236.849C902.158 -227.481 879.495 -204.576 838.58 -148.734Z" fill="#F0F0F0"/>
<path d="M1343.4 1260.61L1344.97 1250.46C1345.33 1248.04 1382.07 1007.45 1375.91 877.031C1372.89 812.063 1368.29 713.977 1345.21 598.485C1317.89 461.539 1270.63 332.509 1204.76 215.023C1157.74 131.139 1121.36 76.6866 1090.96 32.2666C1032.27 -53.5515 1013.48 -62.0124 1012.69 -62.3146L995.771 -67.9955L1013.72 -69.2042C1015.17 -69.3251 1159.55 -78.2091 1313.36 32.6292C1383.22 83.0322 1450.49 168.367 1507.9 279.447C1574.32 407.932 1611.49 608.275 1615.84 670.161L1616.74 683.396C1623.45 777.978 1628.77 852.615 1596.44 938.675C1561.81 1030.9 1486.08 1128.02 1350.89 1253.66L1343.4 1260.61ZM1024.72 -62.2542C1035.84 -52.4637 1057.78 -28.8335 1096.82 28.2779C1127.34 72.8791 1163.84 127.452 1210.98 211.578C1277.22 329.729 1324.72 459.423 1352.16 597.095C1375.31 713.07 1379.9 811.519 1382.98 876.669C1388.42 992.463 1360.32 1194.14 1353.43 1241.4C1630.7 981.584 1622.73 869.114 1609.55 683.819L1608.65 670.584C1604.35 609.121 1567.37 410.229 1501.49 282.65C1444.62 172.537 1378.09 88.1088 1309.13 38.3706C1181.25 -53.7328 1060.32 -61.952 1024.72 -62.2542Z" fill="#F0F0F0"/>
</g>
</g>
</g>
<defs>
<linearGradient id="paint0_linear" x1="1920" y1="-104.78" x2="-80.4297" y2="952.035" gradientUnits="userSpaceOnUse">
<stop stop-color="#B241E9"/>
<stop offset="0.239583" stop-color="#D288F5"/>
<stop offset="0.715872" stop-color="#BC4DF1"/>
<stop offset="1" stop-color="#D68CF9"/>
</linearGradient>
</defs>
</svg>
